  0
SECTION
  2
HEADER
  9
$ACADVER
  1
AC1024
  9
$ACADMAINTVER
 70
6
  9
$DWGCODEPAGE
  3
ANSI_1252
  9
$LASTSAVEDBY
  1
ezdxf
  9
$INSBASE
 10
0.0
 20
0.0
 30
0.0
  9
$EXTMIN
 10
1e+20
 20
1e+20
 30
1e+20
  9
$EXTMAX
 10
-1e+20
 20
-1e+20
 30
-1e+20
  9
$LIMMIN
 10
0.0
 20
0.0
  9
$LIMMAX
 10
420.0
 20
297.0
  9
$ORTHOMODE
 70
0
  9
$REGENMODE
 70
1
  9
$FILLMODE
 70
1
  9
$QTEXTMODE
 70
0
  9
$MIRRTEXT
 70
1
  9
$LTSCALE
 40
1.0
  9
$ATTMODE
 70
1
  9
$TEXTSIZE
 40
2.5
  9
$TRACEWID
 40
1.0
  9
$TEXTSTYLE
  7
Standard
  9
$CLAYER
  8
0
  9
$CELTYPE
  6
ByLayer
  9
$CECOLOR
 62
256
  9
$CELTSCALE
 40
1.0
  9
$DISPSILH
 70
0
  9
$DIMSCALE
 40
1.0
  9
$DIMASZ
 40
2.5
  9
$DIMEXO
 40
0.625
  9
$DIMDLI
 40
3.75
  9
$DIMRND
 40
0.0
  9
$DIMDLE
 40
0.0
  9
$DIMEXE
 40
1.25
  9
$DIMTP
 40
0.0
  9
$DIMTM
 40
0.0
  9
$DIMTXT
 40
2.5
  9
$DIMCEN
 40
2.5
  9
$DIMTSZ
 40
0.0
  9
$DIMTOL
 70
0
  9
$DIMLIM
 70
0
  9
$DIMTIH
 70
0
  9
$DIMTOH
 70
0
  9
$DIMSE1
 70
0
  9
$DIMSE2
 70
0
  9
$DIMTAD
 70
1
  9
$DIMZIN
 70
8
  9
$DIMBLK
  1

  9
$DIMASO
 70
1
  9
$DIMSHO
 70
1
  9
$DIMPOST
  1

  9
$DIMAPOST
  1

  9
$DIMALT
 70
0
  9
$DIMALTD
 70
3
  9
$DIMALTF
 40
0.03937007874
  9
$DIMLFAC
 40
1.0
  9
$DIMTOFL
 70
1
  9
$DIMTVP
 40
0.0
  9
$DIMTIX
 70
0
  9
$DIMSOXD
 70
0
  9
$DIMSAH
 70
0
  9
$DIMBLK1
  1

  9
$DIMBLK2
  1

  9
$DIMSTYLE
  2
ISO-25
  9
$DIMCLRD
 70
0
  9
$DIMCLRE
 70
0
  9
$DIMCLRT
 70
0
  9
$DIMTFAC
 40
1.0
  9
$DIMGAP
 40
0.625
  9
$DIMJUST
 70
0
  9
$DIMSD1
 70
0
  9
$DIMSD2
 70
0
  9
$DIMTOLJ
 70
0
  9
$DIMTZIN
 70
8
  9
$DIMALTZ
 70
0
  9
$DIMALTTZ
 70
0
  9
$DIMUPT
 70
0
  9
$DIMDEC
 70
2
  9
$DIMTDEC
 70
2
  9
$DIMALTU
 70
2
  9
$DIMALTTD
 70
3
  9
$DIMTXSTY
  7
Standard
  9
$DIMAUNIT
 70
0
  9
$DIMADEC
 70
0
  9
$DIMALTRND
 40
0.0
  9
$DIMAZIN
 70
0
  9
$DIMDSEP
 70
44
  9
$DIMATFIT
 70
3
  9
$DIMFRAC
 70
0
  9
$DIMLDRBLK
  1

  9
$DIMLUNIT
 70
2
  9
$DIMLWD
 70
-2
  9
$DIMLWE
 70
-2
  9
$DIMTMOVE
 70
0
  9
$DIMFXL
 40
1.0
  9
$DIMFXLON
 70
0
  9
$DIMJOGANG
 40
0.785398163397
  9
$DIMTFILL
 70
0
  9
$DIMTFILLCLR
 70
0
  9
$DIMARCSYM
 70
0
  9
$DIMLTYPE
  6

  9
$DIMLTEX1
  6

  9
$DIMLTEX2
  6

  9
$DIMTXTDIRECTION
 70
0
  9
$LUNITS
 70
2
  9
$LUPREC
 70
0
  9
$SKETCHINC
 40
1.0
  9
$FILLETRAD
 40
10.0
  9
$AUNITS
 70
0
  9
$AUPREC
 70
0
  9
$MENU
  1
.
  9
$ELEVATION
 40
0.0
  9
$PELEVATION
 40
0.0
  9
$THICKNESS
 40
0.0
  9
$LIMCHECK
 70
0
  9
$CHAMFERA
 40
0.0
  9
$CHAMFERB
 40
0.0
  9
$CHAMFERC
 40
0.0
  9
$CHAMFERD
 40
0.0
  9
$SKPOLY
 70
0
  9
$TDCREATE
 40
2461176.5214583334
  9
$TDUCREATE
 40
2458532.153996898
  9
$TDUPDATE
 40
2461176.5214583334
  9
$TDUUPDATE
 40
2458532.1544311
  9
$TDINDWG
 40
0.0
  9
$TDUSRTIMER
 40
0.0
  9
$USRTIMER
 70
1
  9
$ANGBASE
 50
0.0
  9
$ANGDIR
 70
0
  9
$PDMODE
 70
0
  9
$PDSIZE
 40
0.0
  9
$PLINEWID
 40
0.0
  9
$SPLFRAME
 70
0
  9
$SPLINETYPE
 70
6
  9
$SPLINESEGS
 70
8
  9
$HANDSEED
  5
146
  9
$SURFTAB1
 70
6
  9
$SURFTAB2
 70
6
  9
$SURFTYPE
 70
6
  9
$SURFU
 70
6
  9
$SURFV
 70
6
  9
$UCSBASE
  2

  9
$UCSNAME
  2

  9
$UCSORG
 10
0.0
 20
0.0
 30
0.0
  9
$UCSXDIR
 10
1.0
 20
0.0
 30
0.0
  9
$UCSYDIR
 10
0.0
 20
1.0
 30
0.0
  9
$UCSORTHOREF
  2

  9
$UCSORTHOVIEW
 70
0
  9
$UCSORGTOP
 10
0.0
 20
0.0
 30
0.0
  9
$UCSORGBOTTOM
 10
0.0
 20
0.0
 30
0.0
  9
$UCSORGLEFT
 10
0.0
 20
0.0
 30
0.0
  9
$UCSORGRIGHT
 10
0.0
 20
0.0
 30
0.0
  9
$UCSORGFRONT
 10
0.0
 20
0.0
 30
0.0
  9
$UCSORGBACK
 10
0.0
 20
0.0
 30
0.0
  9
$PUCSBASE
  2

  9
$PUCSNAME
  2

  9
$PUCSORG
 10
0.0
 20
0.0
 30
0.0
  9
$PUCSXDIR
 10
1.0
 20
0.0
 30
0.0
  9
$PUCSYDIR
 10
0.0
 20
1.0
 30
0.0
  9
$PUCSORTHOREF
  2

  9
$PUCSORTHOVIEW
 70
0
  9
$PUCSORGTOP
 10
0.0
 20
0.0
 30
0.0
  9
$PUCSORGBOTTOM
 10
0.0
 20
0.0
 30
0.0
  9
$PUCSORGLEFT
 10
0.0
 20
0.0
 30
0.0
  9
$PUCSORGRIGHT
 10
0.0
 20
0.0
 30
0.0
  9
$PUCSORGFRONT
 10
0.0
 20
0.0
 30
0.0
  9
$PUCSORGBACK
 10
0.0
 20
0.0
 30
0.0
  9
$USERI1
 70
0
  9
$USERI2
 70
0
  9
$USERI3
 70
0
  9
$USERI4
 70
0
  9
$USERI5
 70
0
  9
$USERR1
 40
0.0
  9
$USERR2
 40
0.0
  9
$USERR3
 40
0.0
  9
$USERR4
 40
0.0
  9
$USERR5
 40
0.0
  9
$WORLDVIEW
 70
1
  9
$SHADEDGE
 70
3
  9
$SHADEDIF
 70
70
  9
$TILEMODE
 70
1
  9
$MAXACTVP
 70
64
  9
$PINSBASE
 10
0.0
 20
0.0
 30
0.0
  9
$PLIMCHECK
 70
0
  9
$PEXTMIN
 10
1e+20
 20
1e+20
 30
1e+20
  9
$PEXTMAX
 10
-1e+20
 20
-1e+20
 30
-1e+20
  9
$PLIMMIN
 10
0.0
 20
0.0
  9
$PLIMMAX
 10
420.0
 20
297.0
  9
$UNITMODE
 70
0
  9
$VISRETAIN
 70
1
  9
$PLINEGEN
 70
0
  9
$PSLTSCALE
 70
1
  9
$TREEDEPTH
 70
3020
  9
$CMLSTYLE
  2
Standard
  9
$CMLJUST
 70
0
  9
$CMLSCALE
 40
20.0
  9
$PROXYGRAPHICS
 70
1
  9
$MEASUREMENT
 70
1
  9
$CELWEIGHT
370
-1
  9
$ENDCAPS
280
0
  9
$JOINSTYLE
280
0
  9
$LWDISPLAY
290
0
  9
$INSUNITS
 70
4
  9
$HYPERLINKBASE
  1

  9
$STYLESHEET
  1

  9
$XEDIT
290
1
  9
$CEPSNTYPE
380
0
  9
$PSTYLEMODE
290
1
  9
$FINGERPRINTGUID
  2
{9F84BD8A-06AC-48B6-8DC1-9AE03F7A9F70}
  9
$VERSIONGUID
  2
{D33F3AD4-69B9-40DC-B39F-4A900F838FB4}
  9
$EXTNAMES
290
1
  9
$PSVPSCALE
 40
0.0
  9
$OLESTARTUP
290
0
  9
$SORTENTS
280
127
  9
$INDEXCTL
280
0
  9
$HIDETEXT
280
1
  9
$XCLIPFRAME
280
1
  9
$HALOGAP
280
0
  9
$OBSCOLOR
 70
257
  9
$OBSLTYPE
280
0
  9
$INTERSECTIONDISPLAY
280
0
  9
$INTERSECTIONCOLOR
 70
257
  9
$DIMASSOC
280
2
  9
$PROJECTNAME
  1

  9
$CAMERADISPLAY
290
0
  9
$LENSLENGTH
 40
50.0
  9
$CAMERAHEIGHT
 40
0.0
  9
$STEPSPERSEC
 40
24.0
  9
$STEPSIZE
 40
100.0
  9
$3DDWFPREC
 40
2.0
  9
$PSOLWIDTH
 40
0.005
  9
$PSOLHEIGHT
 40
0.08
  9
$LOFTANG1
 40
1.570796326795
  9
$LOFTANG2
 40
1.570796326795
  9
$LOFTMAG1
 40
0.0
  9
$LOFTMAG2
 40
0.0
  9
$LOFTPARAM
 70
7
  9
$LOFTNORMALS
280
1
  9
$LATITUDE
 40
37.795
  9
$LONGITUDE
 40
-122.394
  9
$NORTHDIRECTION
 40
0.0
  9
$TIMEZONE
 70
-8000
  9
$LIGHTGLYPHDISPLAY
280
1
  9
$TILEMODELIGHTSYNCH
280
1
  9
$CMATERIAL
347
20
  9
$SOLIDHIST
280
0
  9
$SHOWHIST
280
1
  9
$DWFFRAME
280
2
  9
$DGNFRAME
280
2
  9
$REALWORLDSCALE
290
1
  9
$INTERFERECOLOR
 62
256
  9
$CSHADOW
280
0
  9
$SHADOWPLANELOCATION
 40
0.0
  0
ENDSEC
  0
SECTION
  2
CLASSES
  0
CLASS
  1
ACDBDICTIONARYWDFLT
  2
AcDbDictionaryWithDefault
  3
ObjectDBX Classes
 90
0
 91
0
280
0
281
0
  0
CLASS
  1
SUN
  2
AcDbSun
  3
SCENEOE
 90
1153
 91
0
280
0
281
0
  0
CLASS
  1
VISUALSTYLE
  2
AcDbVisualStyle
  3
ObjectDBX Classes
 90
4095
 91
0
280
0
281
0
  0
CLASS
  1
MATERIAL
  2
AcDbMaterial
  3
ObjectDBX Classes
 90
1153
 91
0
280
0
281
0
  0
CLASS
  1
SCALE
  2
AcDbScale
  3
ObjectDBX Classes
 90
1153
 91
0
280
0
281
0
  0
CLASS
  1
TABLESTYLE
  2
AcDbTableStyle
  3
ObjectDBX Classes
 90
4095
 91
0
280
0
281
0
  0
CLASS
  1
MLEADERSTYLE
  2
AcDbMLeaderStyle
  3
ACDB_MLEADERSTYLE_CLASS
 90
4095
 91
0
280
0
281
0
  0
CLASS
  1
DICTIONARYVAR
  2
AcDbDictionaryVar
  3
ObjectDBX Classes
 90
0
 91
0
280
0
281
0
  0
CLASS
  1
CELLSTYLEMAP
  2
AcDbCellStyleMap
  3
ObjectDBX Classes
 90
1152
 91
0
280
0
281
0
  0
CLASS
  1
MENTALRAYRENDERSETTINGS
  2
AcDbMentalRayRenderSettings
  3
SCENEOE
 90
1024
 91
0
280
0
281
0
  0
CLASS
  1
ACDBDETAILVIEWSTYLE
  2
AcDbDetailViewStyle
  3
ObjectDBX Classes
 90
1025
 91
0
280
0
281
0
  0
CLASS
  1
ACDBSECTIONVIEWSTYLE
  2
AcDbSectionViewStyle
  3
ObjectDBX Classes
 90
1025
 91
0
280
0
281
0
  0
CLASS
  1
RASTERVARIABLES
  2
AcDbRasterVariables
  3
ISM
 90
0
 91
0
280
0
281
0
  0
CLASS
  1
LAYOUT
  2
AcDbLayout
  3
ObjectDBX Classes
 90
0
 91
0
280
0
281
0
  0
CLASS
  1
ACDBPLACEHOLDER
  2
AcDbPlaceHolder
  3
ObjectDBX Classes
 90
0
 91
0
280
0
281
0
  0
ENDSEC
  0
SECTION
  2
TABLES
  0
TABLE
  2
VPORT
  5
8
330
0
100
AcDbSymbolTable
 70
1
  0
VPORT
  5
23
330
8
100
AcDbSymbolTableRecord
100
AcDbViewportTableRecord
  2
*Active
 70
0
 10
0.0
 20
0.0
 11
1.0
 21
1.0
 12
0.0
 22
0.0
 13
0.0
 23
0.0
 14
0.5
 24
0.5
 15
0.5
 25
0.5
 16
0.0
 26
0.0
 36
1.0
 17
0.0
 27
0.0
 37
0.0
 40
1000.0
 41
1.34
 42
50.0
 43
0.0
 44
0.0
 50
0.0
 51
0.0
 71
0
 72
1000
 73
1
 74
3
 75
0
 76
0
 77
0
 78
0
281
0
 65
0
146
0.0
  0
ENDTAB
  0
TABLE
  2
LTYPE
  5
2
330
0
100
AcDbSymbolTable
 70
4
  0
LTYPE
  5
24
330
2
100
AcDbSymbolTableRecord
100
AcDbLinetypeTableRecord
  2
ByBlock
 70
0
  3

 72
65
 73
0
 40
0.0
  0
LTYPE
  5
25
330
2
100
AcDbSymbolTableRecord
100
AcDbLinetypeTableRecord
  2
ByLayer
 70
0
  3

 72
65
 73
0
 40
0.0
  0
LTYPE
  5
26
330
2
100
AcDbSymbolTableRecord
100
AcDbLinetypeTableRecord
  2
Continuous
 70
0
  3

 72
65
 73
0
 40
0.0
  0
LTYPE
  5
2F
330
2
100
AcDbSymbolTableRecord
100
AcDbLinetypeTableRecord
  2
DASHED
 70
0
  3

 72
65
 73
1
 40
0.5
 49
-0.25
 74
0
  0
ENDTAB
  0
TABLE
  2
LAYER
  5
1
330
0
100
AcDbSymbolTable
 70
12
  0
LAYER
  5
27
330
1
100
AcDbSymbolTableRecord
100
AcDbLayerTableRecord
  2
0
 70
0
 62
7
  6
Continuous
370
-3
390
13
347
21
  0
LAYER
  5
28
330
1
100
AcDbSymbolTableRecord
100
AcDbLayerTableRecord
  2
Defpoints
 70
0
 62
7
  6
Continuous
290
0
370
-3
390
13
347
21
  0
LAYER
  5
30
330
1
100
AcDbSymbolTableRecord
100
AcDbLayerTableRecord
  2
A-WALL
 70
0
 62
7
  6
Continuous
370
-3
390
13
347
21
  0
LAYER
  5
31
330
1
100
AcDbSymbolTableRecord
100
AcDbLayerTableRecord
  2
A-WALL-INT
 70
0
 62
8
  6
Continuous
370
-3
390
13
347
21
  0
LAYER
  5
32
330
1
100
AcDbSymbolTableRecord
100
AcDbLayerTableRecord
  2
A-DOOR
 70
0
 62
4
  6
Continuous
370
-3
390
13
347
21
  0
LAYER
  5
33
330
1
100
AcDbSymbolTableRecord
100
AcDbLayerTableRecord
  2
A-WINDOW
 70
0
 62
4
  6
Continuous
370
-3
390
13
347
21
  0
LAYER
  5
34
330
1
100
AcDbSymbolTableRecord
100
AcDbLayerTableRecord
  2
A-FURN
 70
0
 62
6
  6
Continuous
370
-3
390
13
347
21
  0
LAYER
  5
35
330
1
100
AcDbSymbolTableRecord
100
AcDbLayerTableRecord
  2
A-ANNO-TEXT
 70
0
 62
2
  6
Continuous
370
-3
390
13
347
21
  0
LAYER
  5
36
330
1
100
AcDbSymbolTableRecord
100
AcDbLayerTableRecord
  2
A-ANNO-DIM
 70
0
 62
3
  6
Continuous
370
-3
390
13
347
21
  0
LAYER
  5
37
330
1
100
AcDbSymbolTableRecord
100
AcDbLayerTableRecord
  2
A-HATCH
 70
0
 62
251
  6
Continuous
370
-3
390
13
347
21
  0
LAYER
  5
38
330
1
100
AcDbSymbolTableRecord
100
AcDbLayerTableRecord
  2
A-GRID
 70
0
 62
8
  6
Continuous
370
-3
390
13
347
21
  0
LAYER
  5
39
330
1
100
AcDbSymbolTableRecord
100
AcDbLayerTableRecord
  2
TITLEBLOCK
 70
0
 62
7
  6
Continuous
370
-3
390
13
347
21
  0
ENDTAB
  0
TABLE
  2
STYLE
  5
5
330
0
100
AcDbSymbolTable
 70
3
  0
STYLE
  5
29
330
5
100
AcDbSymbolTableRecord
100
AcDbTextStyleTableRecord
  2
Standard
 70
0
 40
0.0
 41
1.0
 50
0.0
 71
0
 42
2.5
  3
txt
  4

  0
STYLE
  5
3A
330
5
100
AcDbSymbolTableRecord
100
AcDbTextStyleTableRecord
  2
ARCH
 70
0
 40
0.0
 41
1.0
 50
0.0
 71
0
 42
2.5
  3
romans.shx
  4

  0
STYLE
  5
3B
330
5
100
AcDbSymbolTableRecord
100
AcDbTextStyleTableRecord
  2
ARCH-BOLD
 70
0
 40
0.0
 41
1.0
 50
0.0
 71
0
 42
2.5
  3
romand.shx
  4

  0
ENDTAB
  0
TABLE
  2
VIEW
  5
7
330
0
100
AcDbSymbolTable
 70
0
  0
ENDTAB
  0
TABLE
  2
UCS
  5
6
330
0
100
AcDbSymbolTable
 70
0
  0
ENDTAB
  0
TABLE
  2
APPID
  5
3
330
0
100
AcDbSymbolTable
 70
3
  0
APPID
  5
2A
330
3
100
AcDbSymbolTableRecord
100
AcDbRegAppTableRecord
  2
ACAD
 70
0
  0
APPID
  5
143
330
3
100
AcDbSymbolTableRecord
100
AcDbRegAppTableRecord
  2
HATCHBACKGROUNDCOLOR
 70
0
  0
APPID
  5
144
330
3
100
AcDbSymbolTableRecord
100
AcDbRegAppTableRecord
  2
EZDXF
 70
0
  0
ENDTAB
  0
TABLE
  2
DIMSTYLE
  5
4
330
0
100
AcDbSymbolTable
 70
2
100
AcDbDimStyleTable
  0
DIMSTYLE
105
2B
330
4
100
AcDbSymbolTableRecord
100
AcDbDimStyleTableRecord
  2
Standard
 70
0
 40
1.0
 41
2.5
 42
0.625
 43
3.75
 44
1.25
 45
0.0
 46
0.0
 47
0.0
 48
0.0
 49
2.5
140
2.5
141
2.5
142
0.0
143
0.03937007874
144
1.0
145
0.0
146
1.0
147
0.625
148
0.0
 69
0
 70
0
 71
0
 72
0
 73
0
 74
0
 75
0
 76
0
 77
1
 78
8
 79
3
170
0
171
3
172
1
173
0
174
0
175
0
176
0
177
0
178
0
179
2
271
2
272
2
273
2
274
3
275
0
276
0
277
2
278
44
279
0
280
0
281
0
282
0
283
0
284
8
285
0
286
0
288
0
289
3
290
0
371
-2
372
-2
  0
DIMSTYLE
105
3C
330
4
100
AcDbSymbolTableRecord
100
AcDbDimStyleTableRecord
  2
ARCH-DIM
 70
0
 40
1.0
 41
100.0
 42
60.0
 43
350.0
 44
80.0
 45
0.0
 46
0.0
 47
0.0
 48
0.0
 49
2.5
140
120.0
141
2.5
142
0.0
143
0.03937007874
144
1.0
145
0.0
146
1.0
147
50.0
148
0.0
 69
0
 70
0
 71
0
 72
0
 73
0
 74
0
 75
0
 76
0
 77
1
 78
8
 79
3
170
0
171
3
172
1
173
0
174
0
175
0
176
3
177
3
178
3
179
2
271
2
272
2
273
2
274
3
275
0
276
0
277
2
278
44
279
0
280
0
281
0
282
0
283
0
284
8
285
0
286
0
288
0
289
3
290
0
371
-2
372
-2
  0
ENDTAB
  0
TABLE
  2
BLOCK_RECORD
  5
9
330
0
100
AcDbSymbolTable
 70
9
  0
BLOCK_RECORD
  5
17
330
9
100
AcDbSymbolTableRecord
100
AcDbBlockTableRecord
  2
*Model_Space
340
1A
 70
0
280
1
281
0
  0
BLOCK_RECORD
  5
1B
330
9
100
AcDbSymbolTableRecord
100
AcDbBlockTableRecord
  2
*Paper_Space
340
1E
 70
0
280
1
281
0
  0
BLOCK_RECORD
  5
BB
330
9
100
AcDbSymbolTableRecord
100
AcDbBlockTableRecord
  2
*D1
340
0
 70
0
280
1
281
0
  0
BLOCK_RECORD
  5
C0
330
9
100
AcDbSymbolTableRecord
100
AcDbBlockTableRecord
  2
_CLOSEDFILLED
340
0
 70
0
280
1
281
0
  0
BLOCK_RECORD
  5
CF
330
9
100
AcDbSymbolTableRecord
100
AcDbBlockTableRecord
  2
*D2
340
0
 70
0
280
1
281
0
  0
BLOCK_RECORD
  5
DF
330
9
100
AcDbSymbolTableRecord
100
AcDbBlockTableRecord
  2
*D3
340
0
 70
0
280
1
281
0
  0
BLOCK_RECORD
  5
EF
330
9
100
AcDbSymbolTableRecord
100
AcDbBlockTableRecord
  2
*D4
340
0
 70
0
280
1
281
0
  0
BLOCK_RECORD
  5
FF
330
9
100
AcDbSymbolTableRecord
100
AcDbBlockTableRecord
  2
*D5
340
0
 70
0
280
1
281
0
  0
BLOCK_RECORD
  5
10F
330
9
100
AcDbSymbolTableRecord
100
AcDbBlockTableRecord
  2
*D6
340
0
 70
0
280
1
281
0
  0
ENDTAB
  0
ENDSEC
  0
SECTION
  2
BLOCKS
  0
BLOCK
  5
18
330
17
100
AcDbEntity
  8
0
100
AcDbBlockBegin
  2
*Model_Space
 70
0
 10
0.0
 20
0.0
 30
0.0
  3
*Model_Space
  1

  0
ENDBLK
  5
19
330
17
100
AcDbEntity
  8
0
100
AcDbBlockEnd
  0
BLOCK
  5
1C
330
1B
100
AcDbEntity
  8
0
100
AcDbBlockBegin
  2
*Paper_Space
 70
0
 10
0.0
 20
0.0
 30
0.0
  3
*Paper_Space
  1

  0
ENDBLK
  5
1D
330
1B
100
AcDbEntity
  8
0
100
AcDbBlockEnd
  0
BLOCK
  5
BC
330
BB
100
AcDbEntity
  8
0
100
AcDbBlockBegin
  2
*D1
 70
1
 10
0.0
 20
0.0
 30
0.0
  3
*D1
  1

  0
LINE
  5
BE
330
BB
100
AcDbEntity
  8
0
 62
3
100
AcDbLine
 10
1000.0
 20
1440.0
 30
0.0
 11
1000.0
 21
470.0
 31
0.0
  0
LINE
  5
BF
330
BB
100
AcDbEntity
  8
0
 62
3
100
AcDbLine
 10
15400.0
 20
1440.0
 30
0.0
 11
15400.0
 21
470.0
 31
0.0
  0
INSERT
  5
C4
330
BB
100
AcDbEntity
  8
A-ANNO-DIM
 62
3
100
AcDbBlockReference
  2
_CLOSEDFILLED
 10
1000.0
 20
550.0
 30
0.0
 41
100.0
 42
100.0
 50
180.0
  0
INSERT
  5
C6
330
BB
100
AcDbEntity
  8
A-ANNO-DIM
 62
3
100
AcDbBlockReference
  2
_CLOSEDFILLED
 10
15400.0
 20
550.0
 30
0.0
 41
100.0
 42
100.0
  0
LINE
  5
C8
330
BB
100
AcDbEntity
  8
0
 62
3
100
AcDbLine
 10
1100.0
 20
550.0
 30
0.0
 11
7900.0
 21
550.0
 31
0.0
  0
LINE
  5
C9
330
BB
100
AcDbEntity
  8
0
 62
3
100
AcDbLine
 10
8500.0
 20
550.0
 30
0.0
 11
15300.0
 21
550.0
 31
0.0
  0
MTEXT
  5
CA
330
BB
100
AcDbEntity
  8
A-ANNO-DIM
 62
3
100
AcDbMText
 10
8200.0
 20
550.0
 30
0.0
 40
120.0
 71
5
  1
14400
  0
POINT
  5
CB
330
BB
100
AcDbEntity
  8
Defpoints
100
AcDbPoint
 10
1000.0
 20
550.0
 30
0.0
  0
POINT
  5
CC
330
BB
100
AcDbEntity
  8
Defpoints
100
AcDbPoint
 10
1000.0
 20
1500.0
 30
0.0
  0
POINT
  5
CD
330
BB
100
AcDbEntity
  8
Defpoints
100
AcDbPoint
 10
15400.0
 20
1500.0
 30
0.0
  0
ENDBLK
  5
BD
330
BB
100
AcDbEntity
  8
0
100
AcDbBlockEnd
  0
BLOCK
  5
C1
330
C0
100
AcDbEntity
  8
0
100
AcDbBlockBegin
  2
_CLOSEDFILLED
 70
0
 10
0.0
 20
0.0
 30
0.0
  3
_CLOSEDFILLED
  1

  0
SOLID
  5
C3
330
C0
100
AcDbEntity
  8
0
  6
BYBLOCK
 62
0
100
AcDbTrace
 10
-1.0
 20
0.16439898372402537
 30
0.0
 11
0.0
 21
0.0
 31
0.0
 12
-1.0
 22
-0.16439898372402537
 32
0.0
 13
-1.0
 23
-0.16439898372402537
 33
0.0
  0
ENDBLK
  5
C2
330
C0
100
AcDbEntity
  8
0
100
AcDbBlockEnd
  0
BLOCK
  5
D0
330
CF
100
AcDbEntity
  8
0
100
AcDbBlockBegin
  2
*D2
 70
1
 10
0.0
 20
0.0
 30
0.0
  3
*D2
  1

  0
LINE
  5
D2
330
CF
100
AcDbEntity
  8
0
 62
3
100
AcDbLine
 10
15460.0
 20
1500.0
 30
0.0
 11
16430.0
 21
1500.0
 31
0.0
  0
LINE
  5
D3
330
CF
100
AcDbEntity
  8
0
 62
3
100
AcDbLine
 10
15460.0
 20
12300.0
 30
0.0
 11
16430.0
 21
12300.0
 31
0.0
  0
INSERT
  5
D4
330
CF
100
AcDbEntity
  8
A-ANNO-DIM
 62
3
100
AcDbBlockReference
  2
_CLOSEDFILLED
 10
16350.0
 20
1500.0
 30
0.0
 41
100.0
 42
100.0
 50
270.0
  0
INSERT
  5
D6
330
CF
100
AcDbEntity
  8
A-ANNO-DIM
 62
3
100
AcDbBlockReference
  2
_CLOSEDFILLED
 10
16350.0
 20
12300.0
 30
0.0
 41
100.0
 42
100.0
 50
90.0
  0
LINE
  5
D8
330
CF
100
AcDbEntity
  8
0
 62
3
100
AcDbLine
 10
16350.0
 20
1600.0
 30
0.0
 11
16350.0
 21
6600.0
 31
0.0
  0
LINE
  5
D9
330
CF
100
AcDbEntity
  8
0
 62
3
100
AcDbLine
 10
16350.0
 20
7200.0
 30
0.0
 11
16350.0
 21
12200.0
 31
0.0
  0
MTEXT
  5
DA
330
CF
100
AcDbEntity
  8
A-ANNO-DIM
 62
3
100
AcDbMText
 10
16350.0
 20
6900.0
 30
0.0
 40
120.0
 71
5
  1
10800
 50
90.0
  0
POINT
  5
DB
330
CF
100
AcDbEntity
  8
Defpoints
100
AcDbPoint
 10
16350.0
 20
1500.0
 30
0.0
  0
POINT
  5
DC
330
CF
100
AcDbEntity
  8
Defpoints
100
AcDbPoint
 10
15400.0
 20
1500.0
 30
0.0
  0
POINT
  5
DD
330
CF
100
AcDbEntity
  8
Defpoints
100
AcDbPoint
 10
15400.0
 20
12300.0
 30
0.0
  0
ENDBLK
  5
D1
330
CF
100
AcDbEntity
  8
0
100
AcDbBlockEnd
  0
BLOCK
  5
E0
330
DF
100
AcDbEntity
  8
0
100
AcDbBlockBegin
  2
*D3
 70
1
 10
0.0
 20
0.0
 30
0.0
  3
*D3
  1

  0
LINE
  5
E2
330
DF
100
AcDbEntity
  8
0
 62
3
100
AcDbLine
 10
1000.0
 20
1440.0
 30
0.0
 11
1000.0
 21
920.0
 31
0.0
  0
LINE
  5
E3
330
DF
100
AcDbEntity
  8
0
 62
3
100
AcDbLine
 10
8230.0
 20
1440.0
 30
0.0
 11
8230.0
 21
920.0
 31
0.0
  0
INSERT
  5
E4
330
DF
100
AcDbEntity
  8
A-ANNO-DIM
 62
3
100
AcDbBlockReference
  2
_CLOSEDFILLED
 10
1000.0
 20
1000.0
 30
0.0
 41
100.0
 42
100.0
 50
180.0
  0
INSERT
  5
E6
330
DF
100
AcDbEntity
  8
A-ANNO-DIM
 62
3
100
AcDbBlockReference
  2
_CLOSEDFILLED
 10
8230.0
 20
1000.0
 30
0.0
 41
100.0
 42
100.0
  0
LINE
  5
E8
330
DF
100
AcDbEntity
  8
0
 62
3
100
AcDbLine
 10
1100.0
 20
1000.0
 30
0.0
 11
4375.0
 21
1000.0
 31
0.0
  0
LINE
  5
E9
330
DF
100
AcDbEntity
  8
0
 62
3
100
AcDbLine
 10
4855.0
 20
1000.0
 30
0.0
 11
8130.0
 21
1000.0
 31
0.0
  0
MTEXT
  5
EA
330
DF
100
AcDbEntity
  8
A-ANNO-DIM
 62
3
100
AcDbMText
 10
4615.0
 20
1000.0
 30
0.0
 40
120.0
 71
5
  1
7230
  0
POINT
  5
EB
330
DF
100
AcDbEntity
  8
Defpoints
100
AcDbPoint
 10
1000.0
 20
1000.0
 30
0.0
  0
POINT
  5
EC
330
DF
100
AcDbEntity
  8
Defpoints
100
AcDbPoint
 10
1000.0
 20
1500.0
 30
0.0
  0
POINT
  5
ED
330
DF
100
AcDbEntity
  8
Defpoints
100
AcDbPoint
 10
8230.0
 20
1500.0
 30
0.0
  0
ENDBLK
  5
E1
330
DF
100
AcDbEntity
  8
0
100
AcDbBlockEnd
  0
BLOCK
  5
F0
330
EF
100
AcDbEntity
  8
0
100
AcDbBlockBegin
  2
*D4
 70
1
 10
0.0
 20
0.0
 30
0.0
  3
*D4
  1

  0
LINE
  5
F2
330
EF
100
AcDbEntity
  8
0
 62
3
100
AcDbLine
 10
8345.0
 20
1440.0
 30
0.0
 11
8345.0
 21
920.0
 31
0.0
  0
LINE
  5
F3
330
EF
100
AcDbEntity
  8
0
 62
3
100
AcDbLine
 10
15400.0
 20
1440.0
 30
0.0
 11
15400.0
 21
920.0
 31
0.0
  0
INSERT
  5
F4
330
EF
100
AcDbEntity
  8
A-ANNO-DIM
 62
3
100
AcDbBlockReference
  2
_CLOSEDFILLED
 10
8345.0
 20
1000.0
 30
0.0
 41
100.0
 42
100.0
 50
180.0
  0
INSERT
  5
F6
330
EF
100
AcDbEntity
  8
A-ANNO-DIM
 62
3
100
AcDbBlockReference
  2
_CLOSEDFILLED
 10
15400.0
 20
1000.0
 30
0.0
 41
100.0
 42
100.0
  0
LINE
  5
F8
330
EF
100
AcDbEntity
  8
0
 62
3
100
AcDbLine
 10
8445.0
 20
1000.0
 30
0.0
 11
11632.5
 21
1000.0
 31
0.0
  0
LINE
  5
F9
330
EF
100
AcDbEntity
  8
0
 62
3
100
AcDbLine
 10
12112.5
 20
1000.0
 30
0.0
 11
15300.0
 21
1000.0
 31
0.0
  0
MTEXT
  5
FA
330
EF
100
AcDbEntity
  8
A-ANNO-DIM
 62
3
100
AcDbMText
 10
11872.5
 20
1000.0
 30
0.0
 40
120.0
 71
5
  1
7055
  0
POINT
  5
FB
330
EF
100
AcDbEntity
  8
Defpoints
100
AcDbPoint
 10
8345.0
 20
1000.0
 30
0.0
  0
POINT
  5
FC
330
EF
100
AcDbEntity
  8
Defpoints
100
AcDbPoint
 10
8345.0
 20
1500.0
 30
0.0
  0
POINT
  5
FD
330
EF
100
AcDbEntity
  8
Defpoints
100
AcDbPoint
 10
15400.0
 20
1500.0
 30
0.0
  0
ENDBLK
  5
F1
330
EF
100
AcDbEntity
  8
0
100
AcDbBlockEnd
  0
BLOCK
  5
100
330
FF
100
AcDbEntity
  8
0
100
AcDbBlockBegin
  2
*D5
 70
1
 10
0.0
 20
0.0
 30
0.0
  3
*D5
  1

  0
LINE
  5
102
330
FF
100
AcDbEntity
  8
0
 62
3
100
AcDbLine
 10
940.0
 20
1500.0
 30
0.0
 11
420.0
 21
1500.0
 31
0.0
  0
LINE
  5
103
330
FF
100
AcDbEntity
  8
0
 62
3
100
AcDbLine
 10
940.0
 20
6430.0
 30
0.0
 11
420.0
 21
6430.0
 31
0.0
  0
INSERT
  5
104
330
FF
100
AcDbEntity
  8
A-ANNO-DIM
 62
3
100
AcDbBlockReference
  2
_CLOSEDFILLED
 10
500.0
 20
1500.0
 30
0.0
 41
100.0
 42
100.0
 50
270.0
  0
INSERT
  5
106
330
FF
100
AcDbEntity
  8
A-ANNO-DIM
 62
3
100
AcDbBlockReference
  2
_CLOSEDFILLED
 10
500.0
 20
6430.0
 30
0.0
 41
100.0
 42
100.0
 50
90.0
  0
LINE
  5
108
330
FF
100
AcDbEntity
  8
0
 62
3
100
AcDbLine
 10
500.0
 20
1600.0
 30
0.0
 11
500.0
 21
3725.0
 31
0.0
  0
LINE
  5
109
330
FF
100
AcDbEntity
  8
0
 62
3
100
AcDbLine
 10
500.0
 20
4205.0
 30
0.0
 11
500.0
 21
6330.0
 31
0.0
  0
MTEXT
  5
10A
330
FF
100
AcDbEntity
  8
A-ANNO-DIM
 62
3
100
AcDbMText
 10
500.0
 20
3965.0
 30
0.0
 40
120.0
 71
5
  1
4930
 50
90.0
  0
POINT
  5
10B
330
FF
100
AcDbEntity
  8
Defpoints
100
AcDbPoint
 10
500.0
 20
1500.0
 30
0.0
  0
POINT
  5
10C
330
FF
100
AcDbEntity
  8
Defpoints
100
AcDbPoint
 10
1000.0
 20
1500.0
 30
0.0
  0
POINT
  5
10D
330
FF
100
AcDbEntity
  8
Defpoints
100
AcDbPoint
 10
1000.0
 20
6430.0
 30
0.0
  0
ENDBLK
  5
101
330
FF
100
AcDbEntity
  8
0
100
AcDbBlockEnd
  0
BLOCK
  5
110
330
10F
100
AcDbEntity
  8
0
100
AcDbBlockBegin
  2
*D6
 70
1
 10
0.0
 20
0.0
 30
0.0
  3
*D6
  1

  0
LINE
  5
112
330
10F
100
AcDbEntity
  8
0
 62
3
100
AcDbLine
 10
940.0
 20
6545.0
 30
0.0
 11
420.0
 21
6545.0
 31
0.0
  0
LINE
  5
113
330
10F
100
AcDbEntity
  8
0
 62
3
100
AcDbLine
 10
940.0
 20
12300.0
 30
0.0
 11
420.0
 21
12300.0
 31
0.0
  0
INSERT
  5
114
330
10F
100
AcDbEntity
  8
A-ANNO-DIM
 62
3
100
AcDbBlockReference
  2
_CLOSEDFILLED
 10
500.0
 20
6545.0
 30
0.0
 41
100.0
 42
100.0
 50
270.0
  0
INSERT
  5
116
330
10F
100
AcDbEntity
  8
A-ANNO-DIM
 62
3
100
AcDbBlockReference
  2
_CLOSEDFILLED
 10
500.0
 20
12300.0
 30
0.0
 41
100.0
 42
100.0
 50
90.0
  0
LINE
  5
118
330
10F
100
AcDbEntity
  8
0
 62
3
100
AcDbLine
 10
500.0
 20
6645.0
 30
0.0
 11
500.0
 21
9182.5
 31
0.0
  0
LINE
  5
119
330
10F
100
AcDbEntity
  8
0
 62
3
100
AcDbLine
 10
500.0
 20
9662.5
 30
0.0
 11
500.0
 21
12200.0
 31
0.0
  0
MTEXT
  5
11A
330
10F
100
AcDbEntity
  8
A-ANNO-DIM
 62
3
100
AcDbMText
 10
500.0
 20
9422.5
 30
0.0
 40
120.0
 71
5
  1
5755
 50
90.0
  0
POINT
  5
11B
330
10F
100
AcDbEntity
  8
Defpoints
100
AcDbPoint
 10
500.0
 20
6545.0
 30
0.0
  0
POINT
  5
11C
330
10F
100
AcDbEntity
  8
Defpoints
100
AcDbPoint
 10
1000.0
 20
6545.0
 30
0.0
  0
POINT
  5
11D
330
10F
100
AcDbEntity
  8
Defpoints
100
AcDbPoint
 10
1000.0
 20
12300.0
 30
0.0
  0
ENDBLK
  5
111
330
10F
100
AcDbEntity
  8
0
100
AcDbBlockEnd
  0
ENDSEC
  0
SECTION
  2
ENTITIES
  0
LWPOLYLINE
  5
3D
330
17
100
AcDbEntity
  8
A-WALL
100
AcDbPolyline
 90
5
 70
1
 10
1000.0
 20
1500.0
 10
15400.0
 20
1500.0
 10
15400.0
 20
12300.0
 10
1000.0
 20
12300.0
 10
1000.0
 20
1500.0
  0
LWPOLYLINE
  5
3E
330
17
100
AcDbEntity
  8
A-WALL
100
AcDbPolyline
 90
5
 70
1
 10
1230.0
 20
1730.0
 10
15170.0
 20
1730.0
 10
15170.0
 20
12070.0
 10
1230.0
 20
12070.0
 10
1230.0
 20
1730.0
  0
LWPOLYLINE
  5
3F
330
17
100
AcDbEntity
  8
A-WALL
100
AcDbPolyline
 90
5
 70
1
 10
1000.0
 20
1500.0
 10
15400.0
 20
1500.0
 10
15400.0
 20
1730.0
 10
1000.0
 20
1730.0
 10
1000.0
 20
1500.0
  0
LWPOLYLINE
  5
40
330
17
100
AcDbEntity
  8
A-WALL
100
AcDbPolyline
 90
5
 70
1
 10
1000.0
 20
12070.0
 10
15400.0
 20
12070.0
 10
15400.0
 20
12300.0
 10
1000.0
 20
12300.0
 10
1000.0
 20
12070.0
  0
LWPOLYLINE
  5
41
330
17
100
AcDbEntity
  8
A-WALL
100
AcDbPolyline
 90
5
 70
1
 10
1000.0
 20
1500.0
 10
1230.0
 20
1500.0
 10
1230.0
 20
12300.0
 10
1000.0
 20
12300.0
 10
1000.0
 20
1500.0
  0
LWPOLYLINE
  5
42
330
17
100
AcDbEntity
  8
A-WALL
100
AcDbPolyline
 90
5
 70
1
 10
15170.0
 20
1500.0
 10
15400.0
 20
1500.0
 10
15400.0
 20
12300.0
 10
15170.0
 20
12300.0
 10
15170.0
 20
1500.0
  0
LINE
  5
43
330
17
100
AcDbEntity
  8
A-WALL-INT
100
AcDbLine
 10
1230.0
 20
6430.0
 30
0.0
 11
15170.0
 21
6430.0
 31
0.0
  0
LINE
  5
44
330
17
100
AcDbEntity
  8
A-WALL-INT
100
AcDbLine
 10
1230.0
 20
6545.0
 30
0.0
 11
15170.0
 21
6545.0
 31
0.0
  0
LINE
  5
45
330
17
100
AcDbEntity
  8
A-WALL-INT
100
AcDbLine
 10
8230.0
 20
1730.0
 30
0.0
 11
8230.0
 21
12070.0
 31
0.0
  0
LINE
  5
46
330
17
100
AcDbEntity
  8
A-WALL-INT
100
AcDbLine
 10
8345.0
 20
1730.0
 30
0.0
 11
8345.0
 21
12070.0
 31
0.0
  0
LINE
  5
47
330
17
100
AcDbEntity
  8
A-WALL-INT
100
AcDbLine
 10
12545.0
 20
1730.0
 30
0.0
 11
12545.0
 21
6430.0
 31
0.0
  0
LINE
  5
48
330
17
100
AcDbEntity
  8
A-WALL-INT
100
AcDbLine
 10
12660.0
 20
1730.0
 30
0.0
 11
12660.0
 21
6430.0
 31
0.0
  0
TEXT
  5
49
330
17
100
AcDbEntity
  8
A-ANNO-TEXT
100
AcDbText
 10
4730.0
 20
4160.0
 30
0.0
 40
140.0
  1
LIVING ROOM
  7
ARCH-BOLD
 72
1
 11
4730.0
 21
4160.0
 31
0.0
100
AcDbText
 73
2
  0
TEXT
  5
4A
330
17
100
AcDbEntity
  8
A-ANNO-TEXT
100
AcDbText
 10
4730.0
 20
4000.0
 30
0.0
 40
90.0
  1
32.9 m²
  7
ARCH
 72
1
 11
4730.0
 21
4000.0
 31
0.0
100
AcDbText
 73
2
  0
TEXT
  5
4B
330
17
100
AcDbEntity
  8
A-ANNO-TEXT
100
AcDbText
 10
4730.0
 20
9387.5
 30
0.0
 40
140.0
  1
BEDROOM 1
  7
ARCH-BOLD
 72
1
 11
4730.0
 21
9387.5
 31
0.0
100
AcDbText
 73
2
  0
TEXT
  5
4C
330
17
100
AcDbEntity
  8
A-ANNO-TEXT
100
AcDbText
 10
4730.0
 20
9227.5
 30
0.0
 40
90.0
  1
38.7 m²
  7
ARCH
 72
1
 11
4730.0
 21
9227.5
 31
0.0
100
AcDbText
 73
2
  0
TEXT
  5
4D
330
17
100
AcDbEntity
  8
A-ANNO-TEXT
100
AcDbText
 10
11815.0
 20
9387.5
 30
0.0
 40
140.0
  1
BEDROOM 2
  7
ARCH-BOLD
 72
1
 11
11815.0
 21
9387.5
 31
0.0
100
AcDbText
 73
2
  0
TEXT
  5
4E
330
17
100
AcDbEntity
  8
A-ANNO-TEXT
100
AcDbText
 10
11815.0
 20
9227.5
 30
0.0
 40
90.0
  1
37.7 m²
  7
ARCH
 72
1
 11
11815.0
 21
9227.5
 31
0.0
100
AcDbText
 73
2
  0
TEXT
  5
4F
330
17
100
AcDbEntity
  8
A-ANNO-TEXT
100
AcDbText
 10
10445.0
 20
4160.0
 30
0.0
 40
140.0
  1
KITCHEN
  7
ARCH-BOLD
 72
1
 11
10445.0
 21
4160.0
 31
0.0
100
AcDbText
 73
2
  0
TEXT
  5
50
330
17
100
AcDbEntity
  8
A-ANNO-TEXT
100
AcDbText
 10
10445.0
 20
4000.0
 30
0.0
 40
90.0
  1
19.7 m²
  7
ARCH
 72
1
 11
10445.0
 21
4000.0
 31
0.0
100
AcDbText
 73
2
  0
TEXT
  5
51
330
17
100
AcDbEntity
  8
A-ANNO-TEXT
100
AcDbText
 10
14030.0
 20
4160.0
 30
0.0
 40
140.0
  1
BATHROOM
  7
ARCH-BOLD
 72
1
 11
14030.0
 21
4160.0
 31
0.0
100
AcDbText
 73
2
  0
TEXT
  5
52
330
17
100
AcDbEntity
  8
A-ANNO-TEXT
100
AcDbText
 10
14030.0
 20
4000.0
 30
0.0
 40
90.0
  1
12.3 m²
  7
ARCH
 72
1
 11
14030.0
 21
4000.0
 31
0.0
100
AcDbText
 73
2
  0
ARC
  5
53
330
17
100
AcDbEntity
  8
A-DOOR
100
AcDbCircle
 10
2200.0
 20
1500.0
 30
0.0
 40
900.0
100
AcDbArc
 50
0.0
 51
90.0
  0
LINE
  5
54
330
17
100
AcDbEntity
  8
A-DOOR
100
AcDbLine
 10
2200.0
 20
1500.0
 30
0.0
 11
2200.0
 21
2400.0
 31
0.0
  0
LINE
  5
55
330
17
100
AcDbEntity
  8
A-DOOR
100
AcDbLine
 10
2200.0
 20
1500.0
 30
0.0
 11
3100.0
 21
1500.0
 31
0.0
  0
ARC
  5
56
330
17
100
AcDbEntity
  8
A-DOOR
100
AcDbCircle
 10
8230.0
 20
7645.0
 30
0.0
 40
800.0
100
AcDbArc
 50
270.0
 51
360.0
  0
LINE
  5
57
330
17
100
AcDbEntity
  8
A-DOOR
100
AcDbLine
 10
8230.0
 20
6845.0
 30
0.0
 11
9030.0
 21
6845.0
 31
0.0
  0
LINE
  5
58
330
17
100
AcDbEntity
  8
A-DOOR
100
AcDbLine
 10
8230.0
 20
7645.0
 30
0.0
 11
8230.0
 21
6845.0
 31
0.0
  0
ARC
  5
59
330
17
100
AcDbEntity
  8
A-DOOR
100
AcDbCircle
 10
8545.0
 20
6430.0
 30
0.0
 40
800.0
100
AcDbArc
 50
0.0
 51
90.0
  0
LINE
  5
5A
330
17
100
AcDbEntity
  8
A-DOOR
100
AcDbLine
 10
8545.0
 20
6430.0
 30
0.0
 11
8545.0
 21
7230.0
 31
0.0
  0
LINE
  5
5B
330
17
100
AcDbEntity
  8
A-DOOR
100
AcDbLine
 10
8545.0
 20
6430.0
 30
0.0
 11
9345.0
 21
6430.0
 31
0.0
  0
ARC
  5
5C
330
17
100
AcDbEntity
  8
A-DOOR
100
AcDbCircle
 10
1000.0
 20
8145.0
 30
0.0
 40
800.0
100
AcDbArc
 50
270.0
 51
360.0
  0
LINE
  5
5D
330
17
100
AcDbEntity
  8
A-DOOR
100
AcDbLine
 10
1000.0
 20
7345.0
 30
0.0
 11
1800.0
 21
7345.0
 31
0.0
  0
LINE
  5
5E
330
17
100
AcDbEntity
  8
A-DOOR
100
AcDbLine
 10
1000.0
 20
8145.0
 30
0.0
 11
1000.0
 21
7345.0
 31
0.0
  0
ARC
  5
5F
330
17
100
AcDbEntity
  8
A-DOOR
100
AcDbCircle
 10
10645.0
 20
6430.0
 30
0.0
 40
800.0
100
AcDbArc
 50
90.0
 51
180.0
  0
LINE
  5
60
330
17
100
AcDbEntity
  8
A-DOOR
100
AcDbLine
 10
10645.0
 20
6430.0
 30
0.0
 11
10645.0
 21
7230.0
 31
0.0
  0
LINE
  5
61
330
17
100
AcDbEntity
  8
A-DOOR
100
AcDbLine
 10
9845.0
 20
6430.0
 30
0.0
 11
10645.0
 21
6430.0
 31
0.0
  0
ARC
  5
62
330
17
100
AcDbEntity
  8
A-DOOR
100
AcDbCircle
 10
12545.0
 20
2780.0
 30
0.0
 40
750.0
100
AcDbArc
 50
270.0
 51
360.0
  0
LINE
  5
63
330
17
100
AcDbEntity
  8
A-DOOR
100
AcDbLine
 10
12545.0
 20
2030.0
 30
0.0
 11
13295.0
 21
2030.0
 31
0.0
  0
LINE
  5
64
330
17
100
AcDbEntity
  8
A-DOOR
100
AcDbLine
 10
12545.0
 20
2780.0
 30
0.0
 11
12545.0
 21
2030.0
 31
0.0
  0
LINE
  5
65
330
17
100
AcDbEntity
  8
A-WINDOW
100
AcDbLine
 10
3500.0
 20
1500.0
 30
0.0
 11
5000.0
 21
1500.0
 31
0.0
  0
LINE
  5
66
330
17
100
AcDbEntity
  8
A-WINDOW
100
AcDbLine
 10
3500.0
 20
1615.0
 30
0.0
 11
5000.0
 21
1615.0
 31
0.0
  0
LINE
  5
67
330
17
100
AcDbEntity
  8
A-WINDOW
100
AcDbLine
 10
3500.0
 20
1730.0
 30
0.0
 11
5000.0
 21
1730.0
 31
0.0
  0
LINE
  5
68
330
17
100
AcDbEntity
  8
A-WINDOW
100
AcDbLine
 10
3500.0
 20
1500.0
 30
0.0
 11
3500.0
 21
1730.0
 31
0.0
  0
LINE
  5
69
330
17
100
AcDbEntity
  8
A-WINDOW
100
AcDbLine
 10
5000.0
 20
1500.0
 30
0.0
 11
5000.0
 21
1730.0
 31
0.0
  0
LINE
  5
6A
330
17
100
AcDbEntity
  8
A-WINDOW
100
AcDbLine
 10
2000.0
 20
12070.0
 30
0.0
 11
3400.0
 21
12070.0
 31
0.0
  0
LINE
  5
6B
330
17
100
AcDbEntity
  8
A-WINDOW
100
AcDbLine
 10
2000.0
 20
12185.0
 30
0.0
 11
3400.0
 21
12185.0
 31
0.0
  0
LINE
  5
6C
330
17
100
AcDbEntity
  8
A-WINDOW
100
AcDbLine
 10
2000.0
 20
12300.0
 30
0.0
 11
3400.0
 21
12300.0
 31
0.0
  0
LINE
  5
6D
330
17
100
AcDbEntity
  8
A-WINDOW
100
AcDbLine
 10
2000.0
 20
12070.0
 30
0.0
 11
2000.0
 21
12300.0
 31
0.0
  0
LINE
  5
6E
330
17
100
AcDbEntity
  8
A-WINDOW
100
AcDbLine
 10
3400.0
 20
12070.0
 30
0.0
 11
3400.0
 21
12300.0
 31
0.0
  0
LINE
  5
6F
330
17
100
AcDbEntity
  8
A-WINDOW
100
AcDbLine
 10
9500.0
 20
12070.0
 30
0.0
 11
10900.0
 21
12070.0
 31
0.0
  0
LINE
  5
70
330
17
100
AcDbEntity
  8
A-WINDOW
100
AcDbLine
 10
9500.0
 20
12185.0
 30
0.0
 11
10900.0
 21
12185.0
 31
0.0
  0
LINE
  5
71
330
17
100
AcDbEntity
  8
A-WINDOW
100
AcDbLine
 10
9500.0
 20
12300.0
 30
0.0
 11
10900.0
 21
12300.0
 31
0.0
  0
LINE
  5
72
330
17
100
AcDbEntity
  8
A-WINDOW
100
AcDbLine
 10
9500.0
 20
12070.0
 30
0.0
 11
9500.0
 21
12300.0
 31
0.0
  0
LINE
  5
73
330
17
100
AcDbEntity
  8
A-WINDOW
100
AcDbLine
 10
10900.0
 20
12070.0
 30
0.0
 11
10900.0
 21
12300.0
 31
0.0
  0
LINE
  5
74
330
17
100
AcDbEntity
  8
A-WINDOW
100
AcDbLine
 10
15170.0
 20
7345.0
 30
0.0
 11
15170.0
 21
8545.0
 31
0.0
  0
LINE
  5
75
330
17
100
AcDbEntity
  8
A-WINDOW
100
AcDbLine
 10
15285.0
 20
7345.0
 30
0.0
 11
15285.0
 21
8545.0
 31
0.0
  0
LINE
  5
76
330
17
100
AcDbEntity
  8
A-WINDOW
100
AcDbLine
 10
15400.0
 20
7345.0
 30
0.0
 11
15400.0
 21
8545.0
 31
0.0
  0
LINE
  5
77
330
17
100
AcDbEntity
  8
A-WINDOW
100
AcDbLine
 10
15170.0
 20
7345.0
 30
0.0
 11
15400.0
 21
7345.0
 31
0.0
  0
LINE
  5
78
330
17
100
AcDbEntity
  8
A-WINDOW
100
AcDbLine
 10
15170.0
 20
8545.0
 30
0.0
 11
15400.0
 21
8545.0
 31
0.0
  0
LINE
  5
79
330
17
100
AcDbEntity
  8
A-WINDOW
100
AcDbLine
 10
15170.0
 20
2230.0
 30
0.0
 11
15170.0
 21
3230.0
 31
0.0
  0
LINE
  5
7A
330
17
100
AcDbEntity
  8
A-WINDOW
100
AcDbLine
 10
15285.0
 20
2230.0
 30
0.0
 11
15285.0
 21
3230.0
 31
0.0
  0
LINE
  5
7B
330
17
100
AcDbEntity
  8
A-WINDOW
100
AcDbLine
 10
15400.0
 20
2230.0
 30
0.0
 11
15400.0
 21
3230.0
 31
0.0
  0
LINE
  5
7C
330
17
100
AcDbEntity
  8
A-WINDOW
100
AcDbLine
 10
15170.0
 20
2230.0
 30
0.0
 11
15400.0
 21
2230.0
 31
0.0
  0
LINE
  5
7D
330
17
100
AcDbEntity
  8
A-WINDOW
100
AcDbLine
 10
15170.0
 20
3230.0
 30
0.0
 11
15400.0
 21
3230.0
 31
0.0
  0
LINE
  5
7E
330
17
100
AcDbEntity
  8
A-WINDOW
100
AcDbLine
 10
12860.0
 20
1500.0
 30
0.0
 11
13460.0
 21
1500.0
 31
0.0
  0
LINE
  5
7F
330
17
100
AcDbEntity
  8
A-WINDOW
100
AcDbLine
 10
12860.0
 20
1615.0
 30
0.0
 11
13460.0
 21
1615.0
 31
0.0
  0
LINE
  5
80
330
17
100
AcDbEntity
  8
A-WINDOW
100
AcDbLine
 10
12860.0
 20
1730.0
 30
0.0
 11
13460.0
 21
1730.0
 31
0.0
  0
LINE
  5
81
330
17
100
AcDbEntity
  8
A-WINDOW
100
AcDbLine
 10
12860.0
 20
1500.0
 30
0.0
 11
12860.0
 21
1730.0
 31
0.0
  0
LINE
  5
82
330
17
100
AcDbEntity
  8
A-WINDOW
100
AcDbLine
 10
13460.0
 20
1500.0
 30
0.0
 11
13460.0
 21
1730.0
 31
0.0
  0
LWPOLYLINE
  5
83
330
17
100
AcDbEntity
  8
A-FURN
100
AcDbPolyline
 90
5
 70
1
 10
1530.0
 20
2030.0
 10
3730.0
 20
2030.0
 10
3730.0
 20
2930.0
 10
1530.0
 20
2930.0
 10
1530.0
 20
2030.0
  0
LWPOLYLINE
  5
84
330
17
100
AcDbEntity
  8
A-FURN
100
AcDbPolyline
 90
5
 70
1
 10
1530.0
 20
2030.0
 10
2430.0
 20
2030.0
 10
2430.0
 20
3530.0
 10
1530.0
 20
3530.0
 10
1530.0
 20
2030.0
  0
TEXT
  5
85
330
17
100
AcDbEntity
  8
A-ANNO-TEXT
100
AcDbText
 10
2630.0
 20
2480.0
 30
0.0
 40
80.0
  1
SOFA
  7
ARCH
 72
1
 11
2630.0
 21
2480.0
 31
0.0
100
AcDbText
 73
2
  0
LWPOLYLINE
  5
86
330
17
100
AcDbEntity
  8
A-FURN
100
AcDbPolyline
 90
5
 70
1
 10
2230.0
 20
3130.0
 10
3230.0
 20
3130.0
 10
3230.0
 20
3730.0
 10
2230.0
 20
3730.0
 10
2230.0
 20
3130.0
  0
LWPOLYLINE
  5
87
330
17
100
AcDbEntity
  8
A-FURN
100
AcDbPolyline
 90
5
 70
1
 10
1530.0
 20
6230.0
 10
4030.0
 20
6230.0
 10
4030.0
 20
6380.0
 10
1530.0
 20
6380.0
 10
1530.0
 20
6230.0
  0
TEXT
  5
88
330
17
100
AcDbEntity
  8
A-ANNO-TEXT
100
AcDbText
 10
2780.0
 20
6305.0
 30
0.0
 40
80.0
  1
TV UNIT
  7
ARCH
 72
1
 11
2780.0
 21
6305.0
 31
0.0
100
AcDbText
 73
2
  0
LWPOLYLINE
  5
89
330
17
100
AcDbEntity
  8
A-FURN
100
AcDbPolyline
 90
5
 70
1
 10
4730.0
 20
2030.0
 10
6130.0
 20
2030.0
 10
6130.0
 20
2830.0
 10
4730.0
 20
2830.0
 10
4730.0
 20
2030.0
  0
TEXT
  5
8A
330
17
100
AcDbEntity
  8
A-ANNO-TEXT
100
AcDbText
 10
5430.0
 20
2430.0
 30
0.0
 40
80.0
  1
DINING
  7
ARCH
 72
1
 11
5430.0
 21
2430.0
 31
0.0
100
AcDbText
 73
2
  0
LWPOLYLINE
  5
8B
330
17
100
AcDbEntity
  8
A-FURN
100
AcDbPolyline
 90
5
 70
1
 10
4880.0
 20
1880.0
 10
5330.0
 20
1880.0
 10
5330.0
 20
2000.0
 10
4880.0
 20
2000.0
 10
4880.0
 20
1880.0
  0
LWPOLYLINE
  5
8C
330
17
100
AcDbEntity
  8
A-FURN
100
AcDbPolyline
 90
5
 70
1
 10
4880.0
 20
2750.0
 10
5330.0
 20
2750.0
 10
5330.0
 20
2870.0
 10
4880.0
 20
2870.0
 10
4880.0
 20
2750.0
  0
LWPOLYLINE
  5
8D
330
17
100
AcDbEntity
  8
A-FURN
100
AcDbPolyline
 90
5
 70
1
 10
5130.0
 20
1880.0
 10
5580.0
 20
1880.0
 10
5580.0
 20
2000.0
 10
5130.0
 20
2000.0
 10
5130.0
 20
1880.0
  0
LWPOLYLINE
  5
8E
330
17
100
AcDbEntity
  8
A-FURN
100
AcDbPolyline
 90
5
 70
1
 10
5130.0
 20
2750.0
 10
5580.0
 20
2750.0
 10
5580.0
 20
2870.0
 10
5130.0
 20
2870.0
 10
5130.0
 20
2750.0
  0
LWPOLYLINE
  5
8F
330
17
100
AcDbEntity
  8
A-FURN
100
AcDbPolyline
 90
5
 70
1
 10
5380.0
 20
1880.0
 10
5830.0
 20
1880.0
 10
5830.0
 20
2000.0
 10
5380.0
 20
2000.0
 10
5380.0
 20
1880.0
  0
LWPOLYLINE
  5
90
330
17
100
AcDbEntity
  8
A-FURN
100
AcDbPolyline
 90
5
 70
1
 10
5380.0
 20
2750.0
 10
5830.0
 20
2750.0
 10
5830.0
 20
2870.0
 10
5380.0
 20
2870.0
 10
5380.0
 20
2750.0
  0
LWPOLYLINE
  5
91
330
17
100
AcDbEntity
  8
A-FURN
100
AcDbPolyline
 90
5
 70
1
 10
1530.0
 20
9870.0
 10
3330.0
 20
9870.0
 10
3330.0
 20
11870.0
 10
1530.0
 20
11870.0
 10
1530.0
 20
9870.0
  0
LWPOLYLINE
  5
92
330
17
100
AcDbEntity
  8
A-FURN
100
AcDbPolyline
 90
5
 70
1
 10
1530.0
 20
11470.0
 10
3330.0
 20
11470.0
 10
3330.0
 20
11870.0
 10
1530.0
 20
11870.0
 10
1530.0
 20
11470.0
  0
TEXT
  5
93
330
17
100
AcDbEntity
  8
A-ANNO-TEXT
100
AcDbText
 10
2430.0
 20
10870.0
 30
0.0
 40
80.0
  1
BED (DOUBLE)
  7
ARCH
 72
1
 11
2430.0
 21
10870.0
 31
0.0
100
AcDbText
 73
2
  0
LWPOLYLINE
  5
94
330
17
100
AcDbEntity
  8
A-FURN
100
AcDbPolyline
 90
5
 70
1
 10
1530.0
 20
6745.0
 10
3330.0
 20
6745.0
 10
3330.0
 20
7345.0
 10
1530.0
 20
7345.0
 10
1530.0
 20
6745.0
  0
TEXT
  5
95
330
17
100
AcDbEntity
  8
A-ANNO-TEXT
100
AcDbText
 10
2430.0
 20
7045.0
 30
0.0
 40
80.0
  1
WARDROBE
  7
ARCH
 72
1
 11
2430.0
 21
7045.0
 31
0.0
100
AcDbText
 73
2
  0
LWPOLYLINE
  5
96
330
17
100
AcDbEntity
  8
A-FURN
100
AcDbPolyline
 90
5
 70
1
 10
3430.0
 20
10670.0
 10
3930.0
 20
10670.0
 10
3930.0
 20
11170.0
 10
3430.0
 20
11170.0
 10
3430.0
 20
10670.0
  0
LWPOLYLINE
  5
97
330
17
100
AcDbEntity
  8
A-FURN
100
AcDbPolyline
 90
5
 70
1
 10
4730.0
 20
6745.0
 10
5930.0
 20
6745.0
 10
5930.0
 20
7345.0
 10
4730.0
 20
7345.0
 10
4730.0
 20
6745.0
  0
TEXT
  5
98
330
17
100
AcDbEntity
  8
A-ANNO-TEXT
100
AcDbText
 10
5330.0
 20
7045.0
 30
0.0
 40
80.0
  1
DESK
  7
ARCH
 72
1
 11
5330.0
 21
7045.0
 31
0.0
100
AcDbText
 73
2
  0
LWPOLYLINE
  5
99
330
17
100
AcDbEntity
  8
A-FURN
100
AcDbPolyline
 90
5
 70
1
 10
8645.0
 20
10070.0
 10
9645.0
 20
10070.0
 10
9645.0
 20
11970.0
 10
8645.0
 20
11970.0
 10
8645.0
 20
10070.0
  0
LWPOLYLINE
  5
9A
330
17
100
AcDbEntity
  8
A-FURN
100
AcDbPolyline
 90
5
 70
1
 10
8645.0
 20
11570.0
 10
9645.0
 20
11570.0
 10
9645.0
 20
11950.0
 10
8645.0
 20
11950.0
 10
8645.0
 20
11570.0
  0
TEXT
  5
9B
330
17
100
AcDbEntity
  8
A-ANNO-TEXT
100
AcDbText
 10
9145.0
 20
11070.0
 30
0.0
 40
80.0
  1
BED
  7
ARCH
 72
1
 11
9145.0
 21
11070.0
 31
0.0
100
AcDbText
 73
2
  0
LWPOLYLINE
  5
9C
330
17
100
AcDbEntity
  8
A-FURN
100
AcDbPolyline
 90
5
 70
1
 10
9845.0
 20
10070.0
 10
10845.0
 20
10070.0
 10
10845.0
 20
11970.0
 10
9845.0
 20
11970.0
 10
9845.0
 20
10070.0
  0
LWPOLYLINE
  5
9D
330
17
100
AcDbEntity
  8
A-FURN
100
AcDbPolyline
 90
5
 70
1
 10
9845.0
 20
11570.0
 10
10845.0
 20
11570.0
 10
10845.0
 20
11950.0
 10
9845.0
 20
11950.0
 10
9845.0
 20
11570.0
  0
TEXT
  5
9E
330
17
100
AcDbEntity
  8
A-ANNO-TEXT
100
AcDbText
 10
10345.0
 20
11070.0
 30
0.0
 40
80.0
  1
BED
  7
ARCH
 72
1
 11
10345.0
 21
11070.0
 31
0.0
100
AcDbText
 73
2
  0
LWPOLYLINE
  5
9F
330
17
100
AcDbEntity
  8
A-FURN
100
AcDbPolyline
 90
5
 70
1
 10
8645.0
 20
6745.0
 10
10645.0
 20
6745.0
 10
10645.0
 20
7345.0
 10
8645.0
 20
7345.0
 10
8645.0
 20
6745.0
  0
TEXT
  5
A0
330
17
100
AcDbEntity
  8
A-ANNO-TEXT
100
AcDbText
 10
9645.0
 20
7045.0
 30
0.0
 40
80.0
  1
WARDROBE
  7
ARCH
 72
1
 11
9645.0
 21
7045.0
 31
0.0
100
AcDbText
 73
2
  0
LWPOLYLINE
  5
A1
330
17
100
AcDbEntity
  8
A-FURN
100
AcDbPolyline
 90
5
 70
1
 10
13770.0
 20
6745.0
 10
14770.0
 20
6745.0
 10
14770.0
 20
7345.0
 10
13770.0
 20
7345.0
 10
13770.0
 20
6745.0
  0
TEXT
  5
A2
330
17
100
AcDbEntity
  8
A-ANNO-TEXT
100
AcDbText
 10
14270.0
 20
7045.0
 30
0.0
 40
80.0
  1
DESK
  7
ARCH
 72
1
 11
14270.0
 21
7045.0
 31
0.0
100
AcDbText
 73
2
  0
LWPOLYLINE
  5
A3
330
17
100
AcDbEntity
  8
A-FURN
100
AcDbPolyline
 90
5
 70
1
 10
8445.0
 20
1830.0
 10
12445.0
 20
1830.0
 10
12445.0
 20
2430.0
 10
8445.0
 20
2430.0
 10
8445.0
 20
1830.0
  0
TEXT
  5
A4
330
17
100
AcDbEntity
  8
A-ANNO-TEXT
100
AcDbText
 10
10445.0
 20
2130.0
 30
0.0
 40
80.0
  1
COUNTER
  7
ARCH
 72
1
 11
10445.0
 21
2130.0
 31
0.0
100
AcDbText
 73
2
  0
LWPOLYLINE
  5
A5
330
17
100
AcDbEntity
  8
A-FURN
100
AcDbPolyline
 90
5
 70
1
 10
11945.0
 20
1830.0
 10
12545.0
 20
1830.0
 10
12545.0
 20
4330.0
 10
11945.0
 20
4330.0
 10
11945.0
 20
1830.0
  0
LWPOLYLINE
  5
A6
330
17
100
AcDbEntity
  8
A-FURN
100
AcDbPolyline
 90
5
 70
1
 10
11995.0
 20
3930.0
 10
12445.0
 20
3930.0
 10
12445.0
 20
4330.0
 10
11995.0
 20
4330.0
 10
11995.0
 20
3930.0
  0
CIRCLE
  5
A7
330
17
100
AcDbEntity
  8
A-FURN
100
AcDbCircle
 10
12220.0
 20
4130.0
 30
0.0
 40
80.0
  0
TEXT
  5
A8
330
17
100
AcDbEntity
  8
A-ANNO-TEXT
100
AcDbText
 10
12220.0
 20
4330.0
 30
0.0
 40
75.0
  1
SINK
  7
ARCH
 72
1
 11
12220.0
 21
4330.0
 31
0.0
100
AcDbText
 73
2
  0
LWPOLYLINE
  5
A9
330
17
100
AcDbEntity
  8
A-FURN
100
AcDbPolyline
 90
5
 70
1
 10
8545.0
 20
3330.0
 10
9345.0
 20
3330.0
 10
9345.0
 20
4130.0
 10
8545.0
 20
4130.0
 10
8545.0
 20
3330.0
  0
CIRCLE
  5
AA
330
17
100
AcDbEntity
  8
A-FURN
100
AcDbCircle
 10
8715.0
 20
3480.0
 30
0.0
 40
80.0
  0
CIRCLE
  5
AB
330
17
100
AcDbEntity
  8
A-FURN
100
AcDbCircle
 10
8715.0
 20
3860.0
 30
0.0
 40
80.0
  0
CIRCLE
  5
AC
330
17
100
AcDbEntity
  8
A-FURN
100
AcDbCircle
 10
8915.0
 20
3480.0
 30
0.0
 40
80.0
  0
CIRCLE
  5
AD
330
17
100
AcDbEntity
  8
A-FURN
100
AcDbCircle
 10
8915.0
 20
3860.0
 30
0.0
 40
80.0
  0
TEXT
  5
AE
330
17
100
AcDbEntity
  8
A-ANNO-TEXT
100
AcDbText
 10
8945.0
 20
3730.0
 30
0.0
 40
75.0
  1
STOVE
  7
ARCH
 72
1
 11
8945.0
 21
3730.0
 31
0.0
100
AcDbText
 73
2
  0
LWPOLYLINE
  5
AF
330
17
100
AcDbEntity
  8
A-FURN
100
AcDbPolyline
 90
5
 70
1
 10
9845.0
 20
3330.0
 10
10545.0
 20
3330.0
 10
10545.0
 20
4130.0
 10
9845.0
 20
4130.0
 10
9845.0
 20
3330.0
  0
TEXT
  5
B0
330
17
100
AcDbEntity
  8
A-ANNO-TEXT
100
AcDbText
 10
10195.0
 20
3730.0
 30
0.0
 40
75.0
  1
FRIDGE
  7
ARCH
 72
1
 11
10195.0
 21
3730.0
 31
0.0
100
AcDbText
 73
2
  0
LWPOLYLINE
  5
B1
330
17
100
AcDbEntity
  8
A-FURN
100
AcDbPolyline
 90
5
 70
1
 10
12760.0
 20
4730.0
 10
15185.0
 20
4730.0
 10
15185.0
 20
6230.0
 10
12760.0
 20
6230.0
 10
12760.0
 20
4730.0
  0
LWPOLYLINE
  5
B2
330
17
100
AcDbEntity
  8
A-FURN
100
AcDbPolyline
 90
5
 70
1
 10
12860.0
 20
4830.0
 10
15085.0
 20
4830.0
 10
15085.0
 20
6030.0
 10
12860.0
 20
6030.0
 10
12860.0
 20
4830.0
  0
TEXT
  5
B3
330
17
100
AcDbEntity
  8
A-ANNO-TEXT
100
AcDbText
 10
13972.5
 20
5430.0
 30
0.0
 40
80.0
  1
BATHTUB
  7
ARCH
 72
1
 11
13972.5
 21
5430.0
 31
0.0
100
AcDbText
 73
2
  0
LWPOLYLINE
  5
B4
330
17
100
AcDbEntity
  8
A-FURN
100
AcDbPolyline
 90
5
 70
1
 10
12860.0
 20
1930.0
 10
13260.0
 20
1930.0
 10
13260.0
 20
2530.0
 10
12860.0
 20
2530.0
 10
12860.0
 20
1930.0
  0
ELLIPSE
  5
B5
330
17
100
AcDbEntity
  8
A-FURN
100
AcDbEllipse
 10
13060.0
 20
2280.0
 30
0.0
 11
0.0
 21
350.0
 31
0.0
 40
0.6
 41
0.0
 42
6.283185307179586
  0
TEXT
  5
B6
330
17
100
AcDbEntity
  8
A-ANNO-TEXT
100
AcDbText
 10
13060.0
 20
2580.0
 30
0.0
 40
75.0
  1
WC
  7
ARCH
 72
1
 11
13060.0
 21
2580.0
 31
0.0
100
AcDbText
 73
2
  0
LWPOLYLINE
  5
B7
330
17
100
AcDbEntity
  8
A-FURN
100
AcDbPolyline
 90
5
 70
1
 10
12760.0
 20
2930.0
 10
13260.0
 20
2930.0
 10
13260.0
 20
3430.0
 10
12760.0
 20
3430.0
 10
12760.0
 20
2930.0
  0
CIRCLE
  5
B8
330
17
100
AcDbEntity
  8
A-FURN
100
AcDbCircle
 10
13010.0
 20
3180.0
 30
0.0
 40
60.0
  0
TEXT
  5
B9
330
17
100
AcDbEntity
  8
A-ANNO-TEXT
100
AcDbText
 10
13010.0
 20
3530.0
 30
0.0
 40
75.0
  1
BASIN
  7
ARCH
 72
1
 11
13010.0
 21
3530.0
 31
0.0
100
AcDbText
 73
2
  0
DIMENSION
  5
BA
330
17
100
AcDbEntity
  8
A-ANNO-DIM
100
AcDbDimension
280
0
  2
*D1
  3
ARCH-DIM
 10
1000.0
 20
550.0
 30
0.0
 11
8200.0
 21
550.0
 31
0.0
 70
32
 71
5
  1
<>
100
AcDbAlignedDimension
 13
1000.0
 23
1500.0
 33
0.0
 14
15400.0
 24
1500.0
 34
0.0
 50
0.0
100
AcDbRotatedDimension
  0
DIMENSION
  5
CE
330
17
100
AcDbEntity
  8
A-ANNO-DIM
100
AcDbDimension
280
0
  2
*D2
  3
ARCH-DIM
 10
16350.0
 20
1500.0
 30
0.0
 11
16350.0
 21
6900.0
 31
0.0
 70
32
 71
5
  1
<>
100
AcDbAlignedDimension
 13
15400.0
 23
1500.0
 33
0.0
 14
15400.0
 24
12300.0
 34
0.0
 50
90.0
100
AcDbRotatedDimension
  0
DIMENSION
  5
DE
330
17
100
AcDbEntity
  8
A-ANNO-DIM
100
AcDbDimension
280
0
  2
*D3
  3
ARCH-DIM
 10
1000.0
 20
1000.0
 30
0.0
 11
4615.0
 21
1000.0
 31
0.0
 70
32
 71
5
  1
<>
100
AcDbAlignedDimension
 13
1000.0
 23
1500.0
 33
0.0
 14
8230.0
 24
1500.0
 34
0.0
 50
0.0
100
AcDbRotatedDimension
  0
DIMENSION
  5
EE
330
17
100
AcDbEntity
  8
A-ANNO-DIM
100
AcDbDimension
280
0
  2
*D4
  3
ARCH-DIM
 10
8345.0
 20
1000.0
 30
0.0
 11
11872.5
 21
1000.0
 31
0.0
 70
32
 71
5
  1
<>
100
AcDbAlignedDimension
 13
8345.0
 23
1500.0
 33
0.0
 14
15400.0
 24
1500.0
 34
0.0
 50
0.0
100
AcDbRotatedDimension
  0
DIMENSION
  5
FE
330
17
100
AcDbEntity
  8
A-ANNO-DIM
100
AcDbDimension
280
0
  2
*D5
  3
ARCH-DIM
 10
500.0
 20
1500.0
 30
0.0
 11
500.0
 21
3965.0
 31
0.0
 70
32
 71
5
  1
<>
100
AcDbAlignedDimension
 13
1000.0
 23
1500.0
 33
0.0
 14
1000.0
 24
6430.0
 34
0.0
 50
90.0
100
AcDbRotatedDimension
  0
DIMENSION
  5
10E
330
17
100
AcDbEntity
  8
A-ANNO-DIM
100
AcDbDimension
280
0
  2
*D6
  3
ARCH-DIM
 10
500.0
 20
6545.0
 30
0.0
 11
500.0
 21
9422.5
 31
0.0
 70
32
 71
5
  1
<>
100
AcDbAlignedDimension
 13
1000.0
 23
6545.0
 33
0.0
 14
1000.0
 24
12300.0
 34
0.0
 50
90.0
100
AcDbRotatedDimension
  0
SOLID
  5
11E
330
17
100
AcDbEntity
  8
TITLEBLOCK
100
AcDbTrace
 10
17150.680304882793
 20
11400.0
 30
0.0
 11
17200.0
 21
11700.0
 31
0.0
 12
17249.319695117207
 22
11400.0
 32
0.0
 13
17249.319695117207
 23
11400.0
 33
0.0
  0
CIRCLE
  5
11F
330
17
100
AcDbEntity
  8
TITLEBLOCK
100
AcDbCircle
 10
17200.0
 20
11100.0
 30
0.0
 40
400.0
  0
TEXT
  5
120
330
17
100
AcDbEntity
  8
TITLEBLOCK
100
AcDbText
 10
17200.0
 20
11300.0
 30
0.0
 40
220.0
  1
N
  7
ARCH-BOLD
 72
1
 11
17200.0
 21
11300.0
 31
0.0
100
AcDbText
 73
2
  0
LWPOLYLINE
  5
121
330
17
100
AcDbEntity
  8
TITLEBLOCK
100
AcDbPolyline
 90
5
 70
1
 10
1000.0
 20
-700.0
 10
15400.0
 20
-700.0
 10
15400.0
 20
900.0
 10
1000.0
 20
900.0
 10
1000.0
 20
-700.0
  0
LINE
  5
122
330
17
100
AcDbEntity
  8
TITLEBLOCK
100
AcDbLine
 10
6760.0
 20
-700.0
 30
0.0
 11
6760.0
 21
900.0
 31
0.0
  0
LINE
  5
123
330
17
100
AcDbEntity
  8
TITLEBLOCK
100
AcDbLine
 10
6760.0
 20
100.0
 30
0.0
 11
15400.0
 21
100.0
 31
0.0
  0
TEXT
  5
124
330
17
100
AcDbEntity
  8
TITLEBLOCK
100
AcDbText
 10
3880.0
 20
260.0
 30
0.0
 40
220.0
  1
RESIDENTIAL FLOOR PLAN
  7
ARCH-BOLD
 72
1
 11
3880.0
 21
260.0
 31
0.0
100
AcDbText
 73
2
  0
TEXT
  5
125
330
17
100
AcDbEntity
  8
TITLEBLOCK
100
AcDbText
 10
3880.0
 20
-300.0
 30
0.0
 40
120.0
  1
2-BEDROOM HOUSE  |  GROUND FLOOR
  7
ARCH
 72
1
 11
3880.0
 21
-300.0
 31
0.0
100
AcDbText
 73
2
  0
TEXT
  5
126
330
17
100
AcDbEntity
  8
TITLEBLOCK
100
AcDbText
 10
7480.0
 20
608.0
 30
0.0
 40
80.0
  1
PROJECT:
  7
ARCH-BOLD
 11
7480.0
 21
608.0
 31
0.0
100
AcDbText
 73
1
  0
TEXT
  5
127
330
17
100
AcDbEntity
  8
TITLEBLOCK
100
AcDbText
 10
7480.0
 20
508.0
 30
0.0
 40
100.0
  1
Residential House Design
  7
ARCH
 11
7480.0
 21
508.0
 31
0.0
100
AcDbText
 73
1
  0
TEXT
  5
128
330
17
100
AcDbEntity
  8
TITLEBLOCK
100
AcDbText
 10
7480.0
 20
287.9999999999999
 30
0.0
 40
80.0
  1
DRAWN BY:
  7
ARCH-BOLD
 11
7480.0
 21
287.9999999999999
 31
0.0
100
AcDbText
 73
1
  0
TEXT
  5
129
330
17
100
AcDbEntity
  8
TITLEBLOCK
100
AcDbText
 10
7480.0
 20
187.9999999999999
 30
0.0
 40
100.0
  1
AutoCAD Intern
  7
ARCH
 11
7480.0
 21
187.9999999999999
 31
0.0
100
AcDbText
 73
1
  0
TEXT
  5
12A
330
17
100
AcDbEntity
  8
TITLEBLOCK
100
AcDbText
 10
11368.0
 20
608.0
 30
0.0
 40
80.0
  1
DATE:
  7
ARCH-BOLD
 11
11368.0
 21
608.0
 31
0.0
100
AcDbText
 73
1
  0
TEXT
  5
12B
330
17
100
AcDbEntity
  8
TITLEBLOCK
100
AcDbText
 10
11368.0
 20
508.0
 30
0.0
 40
100.0
  1
2025
  7
ARCH
 11
11368.0
 21
508.0
 31
0.0
100
AcDbText
 73
1
  0
TEXT
  5
12C
330
17
100
AcDbEntity
  8
TITLEBLOCK
100
AcDbText
 10
11368.0
 20
287.9999999999999
 30
0.0
 40
80.0
  1
SCALE:
  7
ARCH-BOLD
 11
11368.0
 21
287.9999999999999
 31
0.0
100
AcDbText
 73
1
  0
TEXT
  5
12D
330
17
100
AcDbEntity
  8
TITLEBLOCK
100
AcDbText
 10
11368.0
 20
187.9999999999999
 30
0.0
 40
100.0
  1
1:50
  7
ARCH
 11
11368.0
 21
187.9999999999999
 31
0.0
100
AcDbText
 73
1
  0
TEXT
  5
12E
330
17
100
AcDbEntity
  8
TITLEBLOCK
100
AcDbText
 10
13672.0
 20
608.0
 30
0.0
 40
80.0
  1
SHEET:
  7
ARCH-BOLD
 11
13672.0
 21
608.0
 31
0.0
100
AcDbText
 73
1
  0
TEXT
  5
12F
330
17
100
AcDbEntity
  8
TITLEBLOCK
100
AcDbText
 10
13672.0
 20
508.0
 30
0.0
 40
100.0
  1
01 of 01
  7
ARCH
 11
13672.0
 21
508.0
 31
0.0
100
AcDbText
 73
1
  0
TEXT
  5
130
330
17
100
AcDbEntity
  8
TITLEBLOCK
100
AcDbText
 10
13672.0
 20
287.9999999999999
 30
0.0
 40
80.0
  1
REV:
  7
ARCH-BOLD
 11
13672.0
 21
287.9999999999999
 31
0.0
100
AcDbText
 73
1
  0
TEXT
  5
131
330
17
100
AcDbEntity
  8
TITLEBLOCK
100
AcDbText
 10
13672.0
 20
187.9999999999999
 30
0.0
 40
100.0
  1
A
  7
ARCH
 11
13672.0
 21
187.9999999999999
 31
0.0
100
AcDbText
 73
1
  0
TEXT
  5
132
330
17
100
AcDbEntity
  8
TITLEBLOCK
100
AcDbText
 10
9352.0
 20
-240.0
 30
0.0
 40
80.0
  1
DRAWING NO:
  7
ARCH-BOLD
 11
9352.0
 21
-240.0
 31
0.0
100
AcDbText
 73
1
  0
TEXT
  5
133
330
17
100
AcDbEntity
  8
TITLEBLOCK
100
AcDbText
 10
9352.0
 20
-340.0
 30
0.0
 40
100.0
  1
RFP-2025-001
  7
ARCH
 11
9352.0
 21
-340.0
 31
0.0
100
AcDbText
 73
1
  0
TEXT
  5
134
330
17
100
AcDbEntity
  8
TITLEBLOCK
100
AcDbText
 10
12520.0
 20
-240.0
 30
0.0
 40
80.0
  1
STATUS:
  7
ARCH-BOLD
 11
12520.0
 21
-240.0
 31
0.0
100
AcDbText
 73
1
  0
TEXT
  5
135
330
17
100
AcDbEntity
  8
TITLEBLOCK
100
AcDbText
 10
12520.0
 20
-340.0
 30
0.0
 40
100.0
  1
FOR REVIEW
  7
ARCH
 11
12520.0
 21
-340.0
 31
0.0
100
AcDbText
 73
1
  0
LWPOLYLINE
  5
136
330
17
100
AcDbEntity
  8
TITLEBLOCK
100
AcDbPolyline
 90
5
 70
1
 10
800.0
 20
-900.0
 10
17800.0
 20
-900.0
 10
17800.0
 20
14100.0
 10
800.0
 20
14100.0
 10
800.0
 20
-900.0
  0
TEXT
  5
137
330
17
100
AcDbEntity
  8
TITLEBLOCK
100
AcDbText
 10
15800.0
 20
4100.0
 30
0.0
 40
130.0
  1
LEGEND:
  7
ARCH-BOLD
 11
15800.0
 21
4100.0
 31
0.0
100
AcDbText
 73
1
  0
TEXT
  5
138
330
17
100
AcDbEntity
  8
A-ANNO-TEXT
100
AcDbText
 10
15800.0
 20
3800.0
 30
0.0
 40
90.0
  1
── EXTERNAL WALL (230mm)
  7
ARCH
 11
15800.0
 21
3800.0
 31
0.0
100
AcDbText
 73
1
  0
TEXT
  5
139
330
17
100
AcDbEntity
  8
A-ANNO-TEXT
100
AcDbText
 10
15800.0
 20
3600.0
 30
0.0
 40
90.0
  1
── INTERNAL WALL (115mm)
  7
ARCH
 11
15800.0
 21
3600.0
 31
0.0
100
AcDbText
 73
1
  0
TEXT
  5
13A
330
17
100
AcDbEntity
  8
A-ANNO-TEXT
100
AcDbText
 10
15800.0
 20
3400.0
 30
0.0
 40
90.0
  1
─ ─ DOOR SWING
  7
ARCH
 11
15800.0
 21
3400.0
 31
0.0
100
AcDbText
 73
1
  0
TEXT
  5
13B
330
17
100
AcDbEntity
  8
A-ANNO-TEXT
100
AcDbText
 10
15800.0
 20
3200.0
 30
0.0
 40
90.0
  1
═══ WINDOW
  7
ARCH
 11
15800.0
 21
3200.0
 31
0.0
100
AcDbText
 73
1
  0
TEXT
  5
13C
330
17
100
AcDbEntity
  8
A-ANNO-TEXT
100
AcDbText
 10
15800.0
 20
3000.0
 30
0.0
 40
90.0
  1
─── DIMENSION LINE
  7
ARCH
 11
15800.0
 21
3000.0
 31
0.0
100
AcDbText
 73
1
  0
TEXT
  5
13D
330
17
100
AcDbEntity
  8
TITLEBLOCK
100
AcDbText
 10
15800.0
 20
1700.0
 30
0.0
 40
130.0
  1
NOTES:
  7
ARCH-BOLD
 11
15800.0
 21
1700.0
 31
0.0
100
AcDbText
 73
1
  0
TEXT
  5
13E
330
17
100
AcDbEntity
  8
A-ANNO-TEXT
100
AcDbText
 10
15800.0
 20
1400.0
 30
0.0
 40
90.0
  1
1. ALL DIMENSIONS IN MILLIMETRES
  7
ARCH
 11
15800.0
 21
1400.0
 31
0.0
100
AcDbText
 73
1
  0
TEXT
  5
13F
330
17
100
AcDbEntity
  8
A-ANNO-TEXT
100
AcDbText
 10
15800.0
 20
1200.0
 30
0.0
 40
90.0
  1
2. DO NOT SCALE FROM DRAWING
  7
ARCH
 11
15800.0
 21
1200.0
 31
0.0
100
AcDbText
 73
1
  0
TEXT
  5
140
330
17
100
AcDbEntity
  8
A-ANNO-TEXT
100
AcDbText
 10
15800.0
 20
1000.0
 30
0.0
 40
90.0
  1
3. VERIFY ON SITE BEFORE CONSTRUCTION
  7
ARCH
 11
15800.0
 21
1000.0
 31
0.0
100
AcDbText
 73
1
  0
TEXT
  5
141
330
17
100
AcDbEntity
  8
A-ANNO-TEXT
100
AcDbText
 10
15800.0
 20
800.0
 30
0.0
 40
90.0
  1
4. WALL FINISH NOT SHOWN
  7
ARCH
 11
15800.0
 21
800.0
 31
0.0
100
AcDbText
 73
1
  0
TEXT
  5
142
330
17
100
AcDbEntity
  8
A-ANNO-TEXT
100
AcDbText
 10
15800.0
 20
600.0
 30
0.0
 40
90.0
  1
5. DRAWING SCALE: 1:50 @ A1
  7
ARCH
 11
15800.0
 21
600.0
 31
0.0
100
AcDbText
 73
1
  0
ENDSEC
  0
SECTION
  2
OBJECTS
  0
DICTIONARY
  5
A
330
0
100
AcDbDictionary
281
1
  3
ACAD_COLOR
350
B
  3
ACAD_GROUP
350
C
  3
ACAD_LAYOUT
350
D
  3
ACAD_MATERIAL
350
E
  3
ACAD_MLEADERSTYLE
350
F
  3
ACAD_MLINESTYLE
350
10
  3
ACAD_PLOTSETTINGS
350
11
  3
ACAD_PLOTSTYLENAME
350
12
  3
ACAD_SCALELIST
350
14
  3
ACAD_TABLESTYLE
350
15
  3
ACAD_VISUALSTYLE
350
16
  3
EZDXF_META
350
2D
  0
DICTIONARY
  5
B
330
A
100
AcDbDictionary
281
1
  0
DICTIONARY
  5
C
330
A
100
AcDbDictionary
281
1
  0
DICTIONARY
  5
D
330
A
100
AcDbDictionary
281
1
  3
Model
350
1A
  3
Layout1
350
1E
  0
DICTIONARY
  5
E
330
A
100
AcDbDictionary
281
1
  3
ByBlock
350
1F
  3
ByLayer
350
20
  3
Global
350
21
  0
DICTIONARY
  5
F
330
A
100
AcDbDictionary
281
1
  3
Standard
350
2C
  0
DICTIONARY
  5
10
330
A
100
AcDbDictionary
281
1
  3
Standard
350
22
  0
DICTIONARY
  5
11
330
A
100
AcDbDictionary
281
1
  0
ACDBDICTIONARYWDFLT
  5
12
330
A
100
AcDbDictionary
281
1
  3
Normal
350
13
100
AcDbDictionaryWithDefault
340
13
  0
ACDBPLACEHOLDER
  5
13
330
12
  0
DICTIONARY
  5
14
330
A
100
AcDbDictionary
281
1
  0
DICTIONARY
  5
15
330
A
100
AcDbDictionary
281
1
  0
DICTIONARY
  5
16
330
A
100
AcDbDictionary
281
1
  0
LAYOUT
  5
1A
330
D
100
AcDbPlotSettings
  1

  4
A3
  6

 40
7.5
 41
20.0
 42
7.5
 43
20.0
 44
420.0
 45
297.0
 46
0.0
 47
0.0
 48
0.0
 49
0.0
140
0.0
141
0.0
142
1.0
143
1.0
 70
1024
 72
1
 73
0
 74
5
  7

 75
16
 76
0
 77
2
 78
300
147
1.0
148
0.0
149
0.0
100
AcDbLayout
  1
Model
 70
1
 71
0
 10
0.0
 20
0.0
 11
420.0
 21
297.0
 12
0.0
 22
0.0
 32
0.0
 14
1e+20
 24
1e+20
 34
1e+20
 15
-1e+20
 25
-1e+20
 35
-1e+20
146
0.0
 13
0.0
 23
0.0
 33
0.0
 16
1.0
 26
0.0
 36
0.0
 17
0.0
 27
1.0
 37
0.0
 76
1
330
17
  0
LAYOUT
  5
1E
330
D
100
AcDbPlotSettings
  1

  4
A3
  6

 40
7.5
 41
20.0
 42
7.5
 43
20.0
 44
420.0
 45
297.0
 46
0.0
 47
0.0
 48
0.0
 49
0.0
140
0.0
141
0.0
142
1.0
143
1.0
 70
0
 72
1
 73
0
 74
5
  7

 75
16
 76
0
 77
2
 78
300
147
1.0
148
0.0
149
0.0
100
AcDbLayout
  1
Layout1
 70
1
 71
1
 10
0.0
 20
0.0
 11
420.0
 21
297.0
 12
0.0
 22
0.0
 32
0.0
 14
1e+20
 24
1e+20
 34
1e+20
 15
-1e+20
 25
-1e+20
 35
-1e+20
146
0.0
 13
0.0
 23
0.0
 33
0.0
 16
1.0
 26
0.0
 36
0.0
 17
0.0
 27
1.0
 37
0.0
 76
1
330
1B
  0
MATERIAL
  5
1F
102
{ACAD_REACTORS
330
E
102
}
330
E
100
AcDbMaterial
  1
ByBlock
  2

 70
0
 40
1.0
 71
1
 41
1.0
 91
-1023410177
 42
1.0
 72
1
  3

 73
1
 74
1
 75
1
 44
0.5
 73
0
 45
1.0
 46
1.0
 77
1
  4

 78
1
 79
1
170
1
 48
1.0
171
1
  6

172
1
173
1
174
1
140
1.0
141
1.0
175
1
  7

176
1
177
1
178
1
143
1.0
179
1
  8

270
1
271
1
272
1
145
1.0
146
1.0
273
1
  9

274
1
275
1
276
1
 42
1.0
 72
1
  3

 73
1
 74
1
 75
1
 94
63
  0
MATERIAL
  5
20
102
{ACAD_REACTORS
330
E
102
}
330
E
100
AcDbMaterial
  1
ByLayer
  2

 70
0
 40
1.0
 71
1
 41
1.0
 91
-1023410177
 42
1.0
 72
1
  3

 73
1
 74
1
 75
1
 44
0.5
 73
0
 45
1.0
 46
1.0
 77
1
  4

 78
1
 79
1
170
1
 48
1.0
171
1
  6

172
1
173
1
174
1
140
1.0
141
1.0
175
1
  7

176
1
177
1
178
1
143
1.0
179
1
  8

270
1
271
1
272
1
145
1.0
146
1.0
273
1
  9

274
1
275
1
276
1
 42
1.0
 72
1
  3

 73
1
 74
1
 75
1
 94
63
  0
MATERIAL
  5
21
102
{ACAD_REACTORS
330
E
102
}
330
E
100
AcDbMaterial
  1
Global
  2

 70
0
 40
1.0
 71
1
 41
1.0
 91
-1023410177
 42
1.0
 72
1
  3

 73
1
 74
1
 75
1
 44
0.5
 73
0
 45
1.0
 46
1.0
 77
1
  4

 78
1
 79
1
170
1
 48
1.0
171
1
  6

172
1
173
1
174
1
140
1.0
141
1.0
175
1
  7

176
1
177
1
178
1
143
1.0
179
1
  8

270
1
271
1
272
1
145
1.0
146
1.0
273
1
  9

274
1
275
1
276
1
 42
1.0
 72
1
  3

 73
1
 74
1
 75
1
 94
63
  0
MLINESTYLE
  5
22
102
{ACAD_REACTORS
330
10
102
}
330
10
100
AcDbMlineStyle
  2
Standard
 70
0
  3

 62
256
 51
90.0
 52
90.0
 71
2
 49
0.5
 62
256
  6
BYLAYER
 49
-0.5
 62
256
  6
BYLAYER
  0
MLEADERSTYLE
  5
2C
102
{ACAD_REACTORS
330
F
102
}
330
F
100
AcDbMLeaderStyle
179
2
170
2
171
1
172
0
 90
2
 40
0.0
 41
0.0
173
1
 91
-1056964608
 92
-2
290
1
 42
2.0
291
1
 43
8.0
  3
Standard
 44
4.0
300

342
29
174
1
175
1
176
0
178
1
 93
-1056964608
 45
4.0
292
0
297
0
 46
4.0
 94
-1056964608
 47
1.0
 49
1.0
140
1.0
294
1
141
0.0
177
0
142
1.0
295
0
296
0
143
3.75
271
0
272
9
273
9
  0
DICTIONARY
  5
2D
330
A
100
AcDbDictionary
280
1
281
1
  3
CREATED_BY_EZDXF
350
2E
  3
WRITTEN_BY_EZDXF
350
145
  0
DICTIONARYVAR
  5
2E
330
2D
100
DictionaryVariables
280
0
  1
1.4.4 @ 2026-05-15T12:30:54.173390+00:00
  0
DICTIONARYVAR
  5
145
330
2D
100
DictionaryVariables
280
0
  1
1.4.4 @ 2026-05-15T12:30:54.189921+00:00
  0
ENDSEC
  0
EOF
